<svg xmlns="http://www.w3.org/2000/svg" xmlns:xlink="http://www.w3.org/1999/xlink" version="1.1" id="Layer_1" x="0px" y="0px" viewBox="0 0 90 90" enable-background="new 0 0 90 90" xml:space="preserve" height="100px" width="100px">
<g>
	<path d="M8,75h18V13H8V75z M11,20h12v2H11V20z M11,26h12v2H11V26z M11,32h12v2H11V32z"/>
	<path d="M29,75h16V13H29V75z M31,20h12v2H31V20z M31,26h12v2H31V26z M31,32h12v2H31V32z"/>
	<path d="M65.3,10.2l-17,4l14.4,60.7l17-4L65.3,10.2z M52,21l13-3.1l0.4,1.8l-13,3.1L52,21z M53.4,26.8l13-3.1l0.4,1.8l-13,3.1   L53.4,26.8z M55.2,34.5l-0.4-1.8l13-3.1l0.4,1.8L55.2,34.5z"/>
</g>
<rect x="4.1" y="77.2" width="81.5" height="5.9"/>
</svg>